<svg width="26" height="26" viewBox="0 0 26 26" fill="none" xmlns="http://www.w3.org/2000/svg">
<rect width="26" height="26" rx="13" fill="#243228"/>
<g clip-path="url(#clip0_480_8782)">
<path fill-rule="evenodd" clip-rule="evenodd" d="M20 13C20 16.866 16.866 20 13 20C9.13401 20 6 16.866 6 13C6 9.13401 9.13401 6 13 6C16.866 6 20 9.13401 20 13ZM13.2508 11.1677C12.5699 11.4509 11.2092 12.037 9.16854 12.9261C8.83718 13.0579 8.66359 13.1868 8.64779 13.3128C8.62108 13.5259 8.88786 13.6098 9.25113 13.724C9.30055 13.7395 9.35175 13.7556 9.40424 13.7727C9.76164 13.8889 10.2424 14.0248 10.4924 14.0302C10.7191 14.0351 10.9721 13.9416 11.2515 13.7498C13.1581 12.4628 14.1423 11.8122 14.2041 11.7982C14.2477 11.7883 14.3081 11.7759 14.3491 11.8122C14.39 11.8486 14.386 11.9175 14.3816 11.936C14.3552 12.0487 13.308 13.0222 12.7661 13.526C12.5972 13.6831 12.4773 13.7945 12.4528 13.82C12.3979 13.877 12.342 13.9309 12.2883 13.9827C11.9562 14.3028 11.7072 14.5428 12.302 14.9348C12.5879 15.1232 12.8166 15.2789 13.0448 15.4343C13.294 15.604 13.5426 15.7733 13.8642 15.9841C13.9462 16.0378 14.0244 16.0936 14.1006 16.148C14.3906 16.3547 14.6512 16.5405 14.9731 16.5109C15.1602 16.4937 15.3534 16.3178 15.4515 15.7932C15.6834 14.5535 16.1392 11.8674 16.2446 10.7606C16.2538 10.6636 16.2422 10.5395 16.2329 10.485C16.2235 10.4305 16.2041 10.3529 16.1332 10.2954C16.0494 10.2274 15.9199 10.213 15.862 10.214C15.5987 10.2187 15.1948 10.3591 13.2508 11.1677Z" fill="white"/>
</g>
<defs>
<clipPath id="clip0_480_8782">
<rect width="14" height="14" fill="white" transform="translate(6 6)"/>
</clipPath>
</defs>
</svg>
