<svg width="26" height="26" viewBox="0 0 26 26" fill="none" xmlns="http://www.w3.org/2000/svg">
<rect width="26" height="26" rx="13" fill="#243228"/>
<g clip-path="url(#clip0_480_8783)">
<path d="M19.0171 6.98292C18.0313 6 16.4475 6 13.2917 6H12.7083C9.5525 6 7.96875 6 6.98292 6.98292C5.99708 7.96583 6 9.5525 6 12.7083V13.2917C6 16.4475 6 18.0312 6.98292 19.0171C7.96583 20.0029 9.5525 20 12.7083 20H13.2917C16.4592 20 18.0429 20 19.0288 19.0171C20.0146 18.0342 20 16.4475 20 13.2917V12.7083C20 9.5525 20 7.96875 19.0171 6.98292ZM16.045 16.0858C15.8925 15.5394 15.5819 15.0502 15.1522 14.6796C14.7225 14.3091 14.193 14.0738 13.63 14.0033V16.0858H13.4492C10.2583 16.0858 8.43833 13.8983 8.3625 10.2525H9.96083C10.0133 12.9242 11.1917 14.0442 12.125 14.2892V10.2583H13.63V12.5625C14.5517 12.4633 15.52 11.4133 15.8467 10.2583H17.3517C17.2307 10.859 16.9869 11.4281 16.6356 11.93C16.2843 12.4319 15.8329 12.8558 15.31 13.175C15.893 13.4642 16.4081 13.8736 16.8214 14.3764C17.2346 14.8791 17.5366 15.4637 17.7075 16.0917L16.045 16.0858Z" fill="white"/>
</g>
<defs>
<clipPath id="clip0_480_8783">
<rect width="14" height="14" fill="white" transform="translate(6 6)"/>
</clipPath>
</defs>
</svg>
