<svg width="26" height="26" viewBox="0 0 26 26" fill="none" xmlns="http://www.w3.org/2000/svg">
<rect width="26" height="26" rx="13" fill="#243228"/>
<path d="M6 20C6.15047 19.4498 6.29364 18.9274 6.43622 18.4047C6.60831 17.7742 6.78245 17.144 6.94928 16.512C6.96559 16.444 6.95774 16.3724 6.92708 16.3095C6.25507 15.0894 5.96289 13.781 6.07976 12.3984C6.24718 10.4192 7.11728 8.79357 8.65384 7.53341C9.50844 6.82963 10.5251 6.3502 11.6118 6.13856C14.8585 5.49285 17.9813 7.15417 19.3191 10.0753C19.8185 11.1672 20.0078 12.3155 19.9149 13.5073C19.6814 16.5047 17.4647 19.056 14.5295 19.7105C12.8749 20.0792 11.2922 19.8627 9.78134 19.0969C9.71394 19.0657 9.63806 19.0579 9.56572 19.0747C8.43587 19.3669 7.3072 19.6625 6.17852 19.9579C6.12827 19.9702 6.07772 19.9813 6 20ZM7.67592 18.3428C7.74254 18.3267 7.79279 18.3153 7.84276 18.3022C8.45633 18.1418 9.0699 17.9846 9.68347 17.8174C9.80735 17.7838 9.90114 17.8028 10.0092 17.8668C11.3465 18.6592 12.7767 18.8938 14.2946 18.5523C17.5377 17.8218 19.5015 14.4034 18.5019 11.235C17.5912 8.34888 14.7095 6.67704 11.7451 7.31983C9.30013 7.8513 7.363 9.99237 7.24087 12.6935C7.19033 13.8102 7.43546 14.8679 8.01981 15.8233C8.20476 16.1257 8.23719 16.3785 8.1288 16.7075C7.95437 17.2386 7.82756 17.7859 7.67592 18.3428Z" fill="white"/>
<path d="M9.45703 11.3778C9.46726 10.7981 9.69369 10.3213 10.103 9.92365C10.1625 9.86254 10.2338 9.81416 10.3125 9.78146C10.3913 9.74876 10.4759 9.73242 10.5612 9.73344C10.6585 9.73344 10.7566 9.74805 10.8533 9.73841C11.0579 9.71825 11.1747 9.81876 11.2463 9.9926C11.4386 10.4531 11.6372 10.9112 11.8161 11.3769C11.8485 11.4614 11.8295 11.5964 11.781 11.675C11.6494 11.8784 11.5053 12.0736 11.3497 12.2593C11.2568 12.3744 11.2492 12.4767 11.3243 12.6029C11.8903 13.5531 12.6771 14.2441 13.7088 14.6516C13.8484 14.7069 13.9624 14.685 14.0579 14.564C14.2297 14.3472 14.4085 14.1363 14.5762 13.9157C14.6727 13.788 14.7854 13.7404 14.9286 13.8064C15.4253 14.0401 15.9185 14.2739 16.4085 14.519C16.4599 14.5447 16.5075 14.6318 16.5096 14.6923C16.5294 15.208 16.3796 15.6398 15.92 15.9404C15.3479 16.3144 14.7472 16.3471 14.1085 16.1678C12.4702 15.7079 11.2536 14.6835 10.2769 13.3313C9.95548 12.8843 9.65922 12.4238 9.53417 11.878C9.49501 11.7153 9.48157 11.5452 9.45703 11.3778Z" fill="white"/>
</svg>
