<svg width="46" height="46" viewBox="0 0 46 46" fill="none" xmlns="http://www.w3.org/2000/svg">
<rect width="46" height="46" rx="23" fill="#F6F8FB"/>
<g clip-path="url(#clip0_505_8828)">
<path d="M23 15.6207C25.4047 15.6207 25.6895 15.6312 26.6352 15.6734C27.5141 15.7121 27.9887 15.8598 28.3051 15.9828C28.7234 16.1445 29.0258 16.3414 29.3387 16.6543C29.6551 16.9707 29.8484 17.2695 30.0102 17.6879C30.1332 18.0043 30.2809 18.4824 30.3195 19.3578C30.3617 20.307 30.3723 20.5918 30.3723 22.993C30.3723 25.3977 30.3617 25.6824 30.3195 26.6281C30.2809 27.507 30.1332 27.9816 30.0102 28.298C29.8484 28.7164 29.6516 29.0187 29.3387 29.3316C29.0223 29.648 28.7234 29.8414 28.3051 30.0031C27.9887 30.1262 27.5105 30.2738 26.6352 30.3125C25.6859 30.3547 25.4012 30.3652 23 30.3652C20.5953 30.3652 20.3105 30.3547 19.3648 30.3125C18.4859 30.2738 18.0113 30.1262 17.6949 30.0031C17.2766 29.8414 16.9742 29.6445 16.6613 29.3316C16.3449 29.0152 16.1516 28.7164 15.9898 28.298C15.8668 27.9816 15.7191 27.5035 15.6805 26.6281C15.6383 25.6789 15.6277 25.3941 15.6277 22.993C15.6277 20.5883 15.6383 20.3035 15.6805 19.3578C15.7191 18.4789 15.8668 18.0043 15.9898 17.6879C16.1516 17.2695 16.3484 16.9672 16.6613 16.6543C16.9777 16.3379 17.2766 16.1445 17.6949 15.9828C18.0113 15.8598 18.4895 15.7121 19.3648 15.6734C20.3105 15.6312 20.5953 15.6207 23 15.6207ZM23 14C20.5566 14 20.2508 14.0105 19.291 14.0527C18.3348 14.0949 17.6773 14.2496 17.1078 14.4711C16.5137 14.7031 16.0109 15.009 15.5117 15.5117C15.009 16.0109 14.7031 16.5137 14.4711 17.1043C14.2496 17.6773 14.0949 18.3312 14.0527 19.2875C14.0105 20.2508 14 20.5566 14 23C14 25.4434 14.0105 25.7492 14.0527 26.709C14.0949 27.6652 14.2496 28.3227 14.4711 28.8922C14.7031 29.4863 15.009 29.9891 15.5117 30.4883C16.0109 30.9875 16.5137 31.2969 17.1043 31.5254C17.6773 31.7469 18.3313 31.9016 19.2875 31.9437C20.2473 31.9859 20.5531 31.9965 22.9965 31.9965C25.4398 31.9965 25.7457 31.9859 26.7055 31.9437C27.6617 31.9016 28.3191 31.7469 28.8887 31.5254C29.4793 31.2969 29.982 30.9875 30.4813 30.4883C30.9805 29.9891 31.2898 29.4863 31.5184 28.8957C31.7398 28.3227 31.8945 27.6687 31.9367 26.7125C31.9789 25.7527 31.9895 25.4469 31.9895 23.0035C31.9895 20.5602 31.9789 20.2543 31.9367 19.2945C31.8945 18.3383 31.7398 17.6809 31.5184 17.1113C31.2969 16.5137 30.991 16.0109 30.4883 15.5117C29.9891 15.0125 29.4863 14.7031 28.8957 14.4746C28.3227 14.2531 27.6688 14.0984 26.7125 14.0562C25.7492 14.0105 25.4434 14 23 14Z" fill="#243228"/>
<path d="M23 18.377C20.4477 18.377 18.377 20.4477 18.377 23C18.377 25.5523 20.4477 27.623 23 27.623C25.5523 27.623 27.623 25.5523 27.623 23C27.623 20.4477 25.5523 18.377 23 18.377ZM23 25.9988C21.3441 25.9988 20.0012 24.6559 20.0012 23C20.0012 21.3441 21.3441 20.0012 23 20.0012C24.6559 20.0012 25.9988 21.3441 25.9988 23C25.9988 24.6559 24.6559 25.9988 23 25.9988Z" fill="#243228"/>
<path d="M28.8852 18.194C28.8852 18.7917 28.4 19.2733 27.8059 19.2733C27.2082 19.2733 26.7266 18.7882 26.7266 18.194C26.7266 17.5964 27.2117 17.1147 27.8059 17.1147C28.4 17.1147 28.8852 17.5999 28.8852 18.194Z" fill="#243228"/>
</g>
<defs>
<clipPath id="clip0_505_8828">
<rect width="18" height="18" fill="white" transform="translate(14 14)"/>
</clipPath>
</defs>
</svg>
