<svg width="46" height="46" viewBox="0 0 46 46" fill="none" xmlns="http://www.w3.org/2000/svg">
<rect width="46" height="46" rx="23" fill="#F6F8FB"/>
<g clip-path="url(#clip0_505_8829)">
<path fill-rule="evenodd" clip-rule="evenodd" d="M32 23C32 27.9706 27.9706 32 23 32C18.0294 32 14 27.9706 14 23C14 18.0294 18.0294 14 23 14C27.9706 14 32 18.0294 32 23ZM23.3224 20.6442C22.4471 21.0083 20.6975 21.7619 18.0738 22.905C17.6478 23.0744 17.4246 23.2402 17.4043 23.4022C17.37 23.6761 17.713 23.784 18.18 23.9308C18.2436 23.9508 18.3094 23.9715 18.3769 23.9935C18.8364 24.1428 19.4545 24.3176 19.7759 24.3245C20.0674 24.3308 20.3927 24.2106 20.7519 23.964C23.2033 22.3093 24.4687 21.4729 24.5482 21.4548C24.6042 21.4421 24.6819 21.4261 24.7345 21.4729C24.7871 21.5197 24.7819 21.6082 24.7764 21.632C24.7424 21.7769 23.396 23.0286 22.6993 23.6763C22.4821 23.8783 22.328 24.0215 22.2965 24.0542C22.2259 24.1275 22.154 24.1968 22.0849 24.2635C21.658 24.675 21.3379 24.9836 22.1026 25.4876C22.4701 25.7298 22.7642 25.9301 23.0576 26.1299C23.378 26.3481 23.6976 26.5657 24.1111 26.8367C24.2165 26.9058 24.3171 26.9775 24.4151 27.0474C24.788 27.3132 25.123 27.5521 25.5369 27.514C25.7774 27.4918 26.0258 27.2657 26.1519 26.5913C26.4501 24.9974 27.0361 21.5438 27.1716 20.1207C27.1835 19.996 27.1685 19.8365 27.1565 19.7664C27.1446 19.6964 27.1195 19.5966 27.0284 19.5227C26.9206 19.4352 26.7541 19.4168 26.6797 19.4181C26.3412 19.424 25.8218 19.6046 23.3224 20.6442Z" fill="#243228"/>
</g>
<defs>
<clipPath id="clip0_505_8829">
<rect width="18" height="18" fill="white" transform="translate(14 14)"/>
</clipPath>
</defs>
</svg>
