<svg width="46" height="46" viewBox="0 0 46 46" fill="none" xmlns="http://www.w3.org/2000/svg">
<rect width="46" height="46" rx="23" fill="#F6F8FB"/>
<path d="M26.8044 14H23.7709V26.2608C23.7709 27.7217 22.6041 28.9218 21.1522 28.9218C19.7003 28.9218 18.5335 27.7217 18.5335 26.2608C18.5335 24.8261 19.6743 23.6522 21.0744 23.6V20.5217C17.989 20.5739 15.5 23.1043 15.5 26.2608C15.5 29.4435 18.0409 32 21.1781 32C24.3153 32 26.8562 29.4174 26.8562 26.2608V19.9739C27.997 20.8087 29.3971 21.3044 30.875 21.3305V18.2522C28.5934 18.1739 26.8044 16.2957 26.8044 14Z" fill="#243228"/>
</svg>
