<svg width="46" height="46" viewBox="0 0 46 46" fill="none" xmlns="http://www.w3.org/2000/svg">
<rect width="46" height="46" rx="23" fill="#F6F8FB"/>
<path d="M31.8207 19.4001C31.8207 19.4001 31.6449 18.1591 31.1035 17.6142C30.418 16.897 29.6516 16.8935 29.3 16.8513C26.7828 16.6685 23.0035 16.6685 23.0035 16.6685H22.9965C22.9965 16.6685 19.2172 16.6685 16.7 16.8513C16.3484 16.8935 15.582 16.897 14.8965 17.6142C14.3551 18.1591 14.1828 19.4001 14.1828 19.4001C14.1828 19.4001 14 20.8591 14 22.3146V23.6786C14 25.1341 14.1793 26.5931 14.1793 26.5931C14.1793 26.5931 14.3551 27.8341 14.893 28.379C15.5785 29.0962 16.4785 29.0716 16.8793 29.1489C18.3207 29.286 23 29.3282 23 29.3282C23 29.3282 26.7828 29.3212 29.3 29.1419C29.6516 29.0997 30.418 29.0962 31.1035 28.379C31.6449 27.8341 31.8207 26.5931 31.8207 26.5931C31.8207 26.5931 32 25.1376 32 23.6786V22.3146C32 20.8591 31.8207 19.4001 31.8207 19.4001ZM21.1402 25.3345V20.2755L26.0023 22.8138L21.1402 25.3345Z" fill="#243228"/>
</svg>
