<svg width="46" height="46" viewBox="0 0 46 46" fill="none" xmlns="http://www.w3.org/2000/svg">
<rect width="46" height="46" rx="23" fill="#F6F8FB"/>
<path d="M14 32C14.1935 31.2926 14.3775 30.621 14.5609 29.9489C14.7821 29.1383 15.006 28.328 15.2205 27.5154C15.2415 27.428 15.2314 27.3359 15.192 27.2551C14.3279 25.6864 13.9523 24.0042 14.1026 22.2266C14.3178 19.6819 15.4365 17.5917 17.4121 15.9715C18.5109 15.0667 19.818 14.4503 21.2152 14.1782C25.3895 13.348 29.4045 15.4839 31.1246 19.2397C31.7666 20.6436 32.01 22.1199 31.8906 23.6522C31.5904 27.506 28.7403 30.7863 24.9665 31.6277C22.8392 32.1018 20.8042 31.8234 18.8617 30.8388C18.7751 30.7987 18.6775 30.7887 18.5845 30.8103C17.1318 31.186 15.6807 31.5661 14.2295 31.9459C14.1649 31.9617 14.0999 31.976 14 32ZM16.1548 29.8693C16.2404 29.8486 16.305 29.834 16.3693 29.8171C17.1581 29.6108 17.947 29.4087 18.7359 29.1939C18.8952 29.1507 19.0157 29.1751 19.1547 29.2573C20.8741 30.2761 22.7129 30.5778 24.6645 30.1386C28.8342 29.1995 31.359 24.8043 30.0739 20.7307C28.903 17.02 25.1979 14.8705 21.3865 15.6969C18.243 16.3802 15.7524 19.133 15.5954 22.606C15.5304 24.0417 15.8456 25.4016 16.5969 26.63C16.8347 27.0188 16.8764 27.3437 16.737 27.7667C16.5128 28.4497 16.3497 29.1533 16.1548 29.8693Z" fill="#243228"/>
<path d="M18.4454 20.9143C18.4586 20.169 18.7497 19.5559 19.276 19.0447C19.3524 18.9661 19.4441 18.9039 19.5454 18.8618C19.6466 18.8198 19.7554 18.7988 19.865 18.8001C19.9901 18.8001 20.1163 18.8189 20.2407 18.8065C20.5036 18.7806 20.6539 18.9098 20.7459 19.1333C20.9931 19.7253 21.2485 20.3144 21.4784 20.9132C21.5201 21.0217 21.4957 21.1953 21.4334 21.2963C21.2641 21.5579 21.079 21.8088 20.8789 22.0476C20.7594 22.1957 20.7497 22.3271 20.8462 22.4894C21.5739 23.7111 22.5855 24.5995 23.9119 25.1235C24.0915 25.1945 24.238 25.1663 24.3608 25.0108C24.5817 24.7321 24.8116 24.4609 25.0273 24.1772C25.1512 24.0131 25.2962 23.9518 25.4803 24.0367C26.1189 24.3373 26.753 24.6378 27.383 24.953C27.4491 24.986 27.5103 25.098 27.513 25.1757C27.5385 25.8388 27.3458 26.394 26.7549 26.7805C26.0194 27.2614 25.247 27.3034 24.4258 27.0728C22.3195 26.4815 20.7553 25.1645 19.4995 23.4259C19.0863 22.8512 18.7054 22.2591 18.5446 21.5574C18.4942 21.3482 18.477 21.1295 18.4454 20.9143Z" fill="#243228"/>
</svg>
