<svg width="193" height="208" viewBox="0 0 193 208" fill="none" xmlns="http://www.w3.org/2000/svg">
<g id="Group 1548">
<path id="Vector" d="M29.3298 19.0136L28.8882 19.124C31.4642 16.3824 34.1506 13.8984 36.9658 11.7272C38.1556 11.4941 40.1183 11.0893 42.8538 10.5128C40.0202 12.5552 37.2786 14.9104 34.6658 17.5416C34.6106 17.5784 30.6178 18.664 29.3114 19.0136H29.3298ZM59.3586 2.50877C61.1986 2.01197 63.0754 1.62557 64.9706 1.38637C66.3506 1.20237 67.7306 1.07357 69.129 1.03677C67.657 1.05517 65.1178 1.09197 62.965 1.14717C59.653 1.42317 56.4146 2.06717 53.2498 3.06077L53.7098 3.02397C55.5866 2.85837 57.4634 2.69277 59.3586 2.52717V2.50877ZM46.4234 8.15757C49.349 6.37277 52.385 4.88237 55.4946 3.74157C53.4706 3.96237 51.465 4.20157 49.441 4.44077C46.3498 5.71037 43.3322 7.32957 40.425 9.26157L40.885 9.16957C42.725 8.83837 44.6386 8.83837 46.4234 8.15757ZM56.4882 145.477C50.6738 141.3 45.853 136.608 42.5778 131.916C42.9642 134.069 43.3874 136.203 43.8474 138.319C44.0682 139.35 44.3074 140.362 44.565 141.374C46.9202 147.703 54.4642 154.235 60.7202 158.246C63.4618 159.994 64.1978 160.454 68.393 162.626C66.645 158.633 65.081 154.456 63.701 150.095C63.6642 150.077 59.745 147.814 56.4698 145.477H56.4882ZM23.5522 95.76C23.6626 93.5704 23.8282 91.4176 24.0306 89.2648C20.9026 94.472 17.7378 98.3176 16.5418 99.6976C16.045 100.268 15.3826 101.022 14.8306 101.63C10.893 106.009 8.79535 107.794 6.69775 109.578C6.86335 114.694 7.24975 119.717 7.87535 124.611C15.217 117.987 21.6202 109.082 23.405 99.4952C23.4418 98.244 23.497 96.9928 23.5706 95.76H23.5522ZM24.417 30.2376C25.705 28.2872 27.0298 26.4288 28.4282 24.6624C29.4402 23.3744 30.4522 22.1232 31.5194 20.9272C29.3114 21.6264 26.2018 22.4912 25.8522 22.6016C23.3866 25.564 21.0682 28.8024 18.897 32.2616L19.3202 32.1144C21.9146 31.1944 22.8346 30.8632 24.4354 30.2376H24.417ZM59.0826 130.646C59.0826 130.646 55.4394 128.144 52.4586 125.586C47.1962 121.023 43.001 115.963 40.3514 110.922C40.4802 114.362 40.7378 117.766 41.0874 121.115C42.9826 129.671 52.2378 137.473 55.0162 139.662C57.1874 141.355 58.3834 142.275 62.1186 144.594C61.5666 142.533 61.0514 140.435 60.573 138.319C60.021 135.817 59.5242 133.259 59.0826 130.665V130.646ZM62.8914 2.21437C66.2034 1.93837 69.6994 1.68077 72.257 1.51517C74.5202 1.36797 80.5554 0.999967 86.6274 0.981567H73.8578C73.4714 0.981567 73.0666 0.981567 72.6802 0.981567C70.877 0.999967 69.0922 1.12877 67.3442 1.36797C65.8538 1.57037 64.3634 1.84637 62.9098 2.19597L62.8914 2.21437ZM63.4986 183.142C64.5658 184.558 65.6514 185.938 66.7922 187.245C67.3442 187.889 67.8778 188.514 68.4482 189.122C73.9682 194.034 86.1306 197.53 89.7186 198.487C92.1474 199.131 94.061 199.628 98.6794 200.566C95.7722 198.745 92.957 196.61 90.2522 194.2C90.2154 194.2 86.0202 193.078 81.6226 191.569C74.5754 189.158 68.1354 186.159 63.4986 183.142ZM63.0018 199.205C61.0698 197.88 59.193 196.426 57.3714 194.826C57.4634 195.709 57.721 198.377 54.7954 200.898C54.1698 201.431 53.5994 201.928 52.0354 202.646C55.0346 204.21 58.1258 205.442 61.2906 206.326C62.781 205.866 63.1306 205.645 63.7562 205.222C65.9458 203.75 65.6882 201.726 63.0202 199.186L63.0018 199.205ZM78.1634 206.988C77.3354 206.307 76.213 205.847 75.753 205.645C73.637 204.927 71.5762 204.062 69.5338 203.05C70.2882 205.019 68.7426 206.05 67.7674 206.491C67.3258 206.694 66.645 206.988 65.2466 207.246C66.9946 207.558 68.761 207.779 70.5458 207.89L73.1218 207.963H76.6178C76.9122 207.963 77.133 207.963 77.3906 207.926C76.581 207.89 75.753 207.834 74.9434 207.761C75.753 207.834 76.5626 207.89 77.3906 207.926C79.0466 207.779 78.329 207.098 78.1634 206.97V206.988ZM89.461 207.982C88.725 207.982 87.989 207.945 87.2714 207.908C85.7626 207.816 84.2906 207.65 82.8186 207.411C83.0148 207.534 83.1498 207.681 83.2234 207.853C83.2234 207.853 83.113 207.982 82.6898 207.982H89.7738H89.7002C89.7002 207.982 89.5346 207.982 89.461 207.982ZM100.17 207.448C100.023 207.448 99.8386 207.411 99.7098 207.411C101.182 207.65 102.672 207.816 104.163 207.908C104.899 207.945 105.616 207.982 106.352 207.982C108.873 207.982 111.375 207.982 113.896 207.982H113.344C111.247 207.982 105.69 207.945 100.17 207.448ZM63.241 187.245C52.753 174.972 44.6754 157.989 40.3146 138.301C37.9594 127.702 36.6898 116.331 36.6898 104.5C36.6898 101.556 36.7634 98.6488 36.929 95.76C37.3154 88.6944 38.1434 81.8496 39.3946 75.2624C43.185 55.188 50.7842 37.6344 60.8858 24.6624C70.969 11.672 83.5914 3.24477 97.4282 1.38637C99.3418 1.12877 101.255 0.999967 103.206 0.999967H93.3986C91.4482 0.999967 89.5162 1.12877 87.621 1.38637C73.7842 3.24477 61.1802 11.672 51.0602 24.6624C40.9586 37.6528 33.3594 55.188 29.569 75.2624C27.7842 84.72 26.8826 94.5456 26.8826 104.5C26.8826 116.35 28.1706 127.721 30.5074 138.301C34.8682 157.989 42.9458 174.972 53.4338 187.245C63.9218 199.518 76.8018 207.08 90.8226 207.908C91.669 207.963 92.5338 207.982 93.3986 207.982H103.206C102.341 207.982 101.476 207.963 100.63 207.908C86.6274 207.08 73.729 199.518 63.241 187.245ZM79.5986 182.314C79.1754 182.166 75.4034 180.768 71.3738 178.91C67.5098 177.125 60.1682 173.408 54.4642 168.458C55.7522 171.016 57.1138 173.463 58.549 175.8C63.3146 181.909 74.925 186.73 78.3658 188.073C81.089 189.122 82.5978 189.692 86.977 191.054C85.7994 189.839 84.6218 188.57 83.4994 187.245C82.1562 185.681 80.8498 184.025 79.5986 182.314ZM62.8914 163.398C54.7954 158.651 49.993 154.162 47.3802 151.236C48.337 154.162 49.3674 156.995 50.4898 159.737C53.121 164.539 59.9106 170.059 68.6138 174.512C70.969 175.708 72.3858 176.426 76.8018 178.247C74.5938 174.88 72.5514 171.274 70.6746 167.446C70.6378 167.446 66.3874 165.422 62.9098 163.38L62.8914 163.398ZM5.59375 83.6712C5.96175 80.8192 6.42175 78.0224 6.93695 75.2808C7.30496 73.2936 7.72816 71.3248 8.16975 69.3744C6.56895 70.368 3.86415 71.7848 3.33055 72.0608C2.33695 76.7528 1.54575 81.6104 0.993755 86.5784L1.34335 86.3576C3.56976 84.996 4.28735 84.5544 5.59375 83.6712ZM9.62335 63.7624C10.8562 59.2728 12.2914 54.9488 13.9106 50.8088C11.7271 51.8637 10.0036 52.6672 8.74015 53.2192C7.19455 57.4512 5.81455 61.8488 4.65535 66.4304L5.02336 66.228C7.43375 64.9768 8.20655 64.5536 9.62335 63.7624ZM37.5546 168.477C36.837 173.684 33.9666 177.511 32.7706 178.928C31.8874 179.977 30.9674 181.062 29.2562 182.332C30.5074 184.043 31.8138 185.699 33.157 187.263C34.2978 188.588 35.457 189.858 36.6346 191.072C42.5042 186.73 43.6818 180.455 41.6394 175.837C40.2042 173.482 38.8426 171.034 37.5546 168.495V168.477ZM26.9562 138.319C26.4962 136.222 26.073 134.087 25.6866 131.916C23.6074 137.951 20.2954 142.625 17.9034 145.477C16.9282 146.618 15.4746 148.347 13.3954 150.095C14.7754 154.456 16.3394 158.633 18.0874 162.626C20.369 160.528 20.6266 160.178 22.1538 158.228C26.1282 153.094 28.2994 146.47 27.6922 141.355C27.453 140.343 27.2138 139.331 26.9746 138.301L26.9562 138.319ZM15.9898 45.804C17.7562 41.8296 19.6882 38.0576 21.7858 34.5064C19.4919 35.4018 17.6764 36.0949 16.3394 36.5856C14.297 40.2288 12.4202 44.1112 10.7274 48.1776L11.1322 48.012C15.2538 46.2088 16.0082 45.8224 16.0082 45.8224L15.9898 45.804ZM30.489 151.254C29.2194 156.609 26.4226 160.822 24.3066 163.417C23.0922 164.907 22.6322 165.459 20.3506 167.483C22.2274 171.292 24.2882 174.898 26.4778 178.284C28.5202 176.444 28.8698 176.002 30.0106 174.549C32.4026 171.439 34.9786 166.342 33.5802 159.774C32.4578 157.014 31.4274 154.18 30.4706 151.273L30.489 151.254ZM109.959 0.999967C109.959 0.999967 109.848 0.999967 109.793 0.999967C109.848 1.23917 110.86 1.51517 110.86 1.51517C111.872 1.84637 111.964 1.86477 112.976 2.14077C114.246 1.69917 115.515 1.31277 116.803 0.999967H109.959ZM56.6354 62.9712C54.6298 60.5976 51.097 55.8136 50.0114 50.3856C48.9074 53.164 47.8954 56.016 46.9754 58.96C45.577 66.7248 52.1642 75.06 53.489 76.6424C55.3658 78.8688 55.881 79.476 58.5122 81.8496C58.825 79.6232 59.193 77.4336 59.5978 75.2624C60.0762 72.7048 60.6282 70.184 61.2354 67.7184C61.217 67.7 58.825 65.584 56.617 62.9896L56.6354 62.9712ZM40.4434 95.76C40.3698 96.9928 40.333 98.244 40.2778 99.4952C41.0874 109.1 50.0298 118.65 58.1626 124.611C57.537 119.717 57.1506 114.694 56.985 109.578C56.9482 109.56 53.581 106.818 51.0418 104.187C47.4906 100.47 46.221 98.612 44.289 95.76C43.7002 94.8768 42.173 92.4848 40.9034 89.2648C40.701 91.3992 40.5354 93.5704 40.425 95.76H40.4434ZM77.9426 29.0232C78.973 27.5144 80.0402 26.0608 81.1258 24.6624C82.4138 23.0064 83.757 21.424 85.1186 19.9152C84.6034 19.5472 83.2602 18.5168 81.9538 17.1184C80.9234 16.0144 78.5682 13.144 79.1202 10.3472C77.2066 11.7088 75.3298 13.2176 73.5266 14.8368C69.8834 19.0136 73.4162 24.1104 74.5938 25.564C75.8634 27.1464 76.1026 27.4224 77.961 29.0232H77.9426ZM102.359 202.664C98.0722 201.965 94.9258 201.266 93.3986 200.916C85.8546 199.223 79.4146 197.162 74.281 194.826C76.1026 196.426 77.9794 197.88 79.9114 199.205C84.125 201.597 92.313 203.805 102.341 205.24C101.568 204.964 100.814 204.651 100.059 204.338C100.814 204.651 101.587 204.964 102.341 205.24C104.291 205.516 106.739 205.866 111.559 206.326C111.504 206.307 111.449 206.289 111.394 206.27C108.284 205.387 105.267 204.173 102.323 202.646L102.359 202.664ZM49.6618 95.76C50.1402 96.3672 50.5818 96.9008 51.2442 97.6C53.1578 99.6976 53.949 100.562 56.9666 103.138C56.985 100.654 57.0586 98.1888 57.1874 95.7416C57.3346 93.1104 57.537 90.516 57.7946 87.94C57.7762 87.9216 55.0898 85.6032 52.5506 82.788C48.5394 78.3168 45.6138 73.3672 44.2706 68.8776C43.7738 70.9752 43.3322 73.0912 42.9274 75.244C42.725 76.2928 42.541 77.3416 42.3754 78.3904C42.0442 85.8424 47.5826 93.0368 49.6618 95.7416V95.76ZM88.3202 16.6032C90.9514 14.0456 93.7114 11.7824 96.5818 9.79517C95.0914 8.94877 93.7482 7.84477 93.7482 7.84477C91.2826 5.74717 91.3194 4.38557 91.7794 3.63117C89.6818 4.38557 87.621 5.28717 85.597 6.33597C81.3466 9.09597 84.6586 13.144 85.3578 13.9352C86.3514 15.0208 86.517 15.2048 88.3202 16.5848V16.6032ZM62.7626 62.1064C64.0506 57.672 65.5226 53.3848 67.1786 49.3C67.1602 49.3 64.989 47.4048 63.1122 45.1048C60.0762 41.3696 58.3282 37.6712 57.9418 34.1568C56.525 36.5304 55.1818 38.996 53.9122 41.572C52.4034 46.0064 54.0594 51.9128 58.3466 57.3592C59.837 59.236 60.3338 59.8616 62.7442 62.088L62.7626 62.1064ZM69.3314 44.3504C71.1346 40.4312 73.1034 36.7144 75.2378 33.2368C75.2378 33.2368 73.4346 31.7832 71.6498 29.6856C70.1594 27.9192 67.6754 24.4048 67.749 20.6512C66.6082 21.9392 65.5042 23.2824 64.4186 24.6624C63.9034 25.3432 63.3698 26.024 62.873 26.7232C59.8002 32.3536 64.5106 38.9224 65.4858 40.192C66.8106 41.8848 67.2154 42.4 69.3314 44.3504ZM11.7762 144.594C14.205 142.386 14.9594 141.466 16.413 139.662C21.1234 133.793 24.1042 126.69 24.1778 121.134C23.8282 117.785 23.589 114.399 23.4418 110.94C20.553 117.417 16.6338 122.495 13.8554 125.586C12.733 126.838 11.0402 128.733 8.74015 130.646C9.18175 133.241 9.67855 135.798 10.2306 138.301C10.709 140.435 11.2242 142.514 11.7762 144.575V144.594ZM27.7658 183.473C26.6618 184.282 24.9138 185.221 24.8954 185.239C27.3242 188.275 29.8818 191.054 32.5866 193.538L32.8074 193.427C34.0402 192.783 34.5554 192.489 35.2546 192.029C33.7274 190.538 32.2554 188.938 30.8202 187.263C29.7714 186.049 28.7594 184.779 27.7658 183.473ZM4.26895 105.089C4.26895 104.886 4.26895 104.702 4.26895 104.5C4.26895 101.556 4.34256 98.6488 4.50815 95.76C4.61856 93.736 4.76575 91.7488 4.94975 89.7616C3.44095 90.7184 1.96895 91.7304 0.441755 92.6504C0.147355 96.5696 0.0185547 100.526 0.0185547 104.482C0.0185547 105.696 0.0185547 106.91 0.0553547 108.125L0.386555 107.904C2.55775 106.377 3.10975 105.972 4.28735 105.07L4.26895 105.089ZM18.6762 168.845C17.0386 170.078 16.9466 170.151 15.5482 170.998C17.5538 174.696 19.7066 178.192 22.025 181.43L22.2458 181.283C23.6994 180.382 24.1226 180.087 24.9322 179.48C22.6874 176.168 20.6082 172.598 18.6762 168.845ZM7.87535 138.301C7.43375 136.35 7.04736 134.363 6.67936 132.358C5.44656 133.443 2.98095 135.081 2.96255 135.099C3.90095 139.828 5.06015 144.428 6.40335 148.844L6.67936 148.66C8.33535 147.482 8.90575 147.041 9.88095 146.231C9.14495 143.637 8.48255 140.987 7.87535 138.301ZM5.75936 126.414C5.07856 121.538 4.61856 116.534 4.41615 111.418C1.86469 113.246 0.496955 114.221 0.312955 114.344C0.625755 119.441 1.17775 124.427 1.93215 129.285L2.22655 129.082C4.15856 127.684 4.69215 127.279 5.75936 126.414ZM11.5554 151.659C10.4882 152.506 9.77055 153.058 8.13295 154.125C9.64175 158.394 11.3346 162.497 13.193 166.379L13.4322 166.214C15.0146 165.11 15.493 164.778 16.3762 164.061C14.5914 160.123 12.9722 155.965 11.5554 151.659ZM106.739 206.546C106.628 206.546 106.481 206.528 106.352 206.51C96.6002 205.498 90.1234 204.081 86.4066 203.069C88.4306 204.081 90.5098 204.946 92.6258 205.663C95.349 206.436 102.028 207.761 115.975 207.963C115.166 207.926 114.338 207.871 113.528 207.798C114.338 207.871 115.147 207.926 115.975 207.963C116.233 207.963 116.472 207.963 116.693 207.963C115.736 207.724 114.761 207.448 113.823 207.154C110.216 206.896 107.916 206.675 106.739 206.546ZM64.0506 207.466C63.2778 207.595 61.861 207.706 61.6954 207.724C63.2962 207.908 64.897 208 66.5162 208H70.7482C69.8834 208 69.0186 207.982 68.1722 207.926C66.7738 207.834 65.3938 207.687 64.0322 207.485L64.0506 207.466ZM35.8986 196.39C38.677 198.634 41.5842 200.585 44.5834 202.222L44.7858 202.149C45.9634 201.726 46.405 201.542 47.1042 201.229C44.1602 199.481 41.3082 197.42 38.585 195.065C37.2602 195.801 37.1314 195.874 35.917 196.39H35.8986ZM48.2634 204.044C51.3362 205.406 54.501 206.436 57.7394 207.098L57.9234 207.062C59.0274 206.896 59.4874 206.804 60.113 206.657C56.9114 205.847 53.8018 204.706 50.7658 203.216C49.6802 203.621 49.4226 203.731 48.2634 204.044ZM16.965 80.1384C15.9714 81.0584 14.6282 81.5736 13.9474 82.8248C12.089 84.4072 9.99135 86.192 7.45215 87.9768C6.91855 93.184 6.66095 98.2624 6.60575 103.175C9.51295 100.746 10.1754 100.084 12.6226 97.6184C17.2778 92.8896 23.5706 84.996 25.4658 78.4272C25.6498 77.3784 25.8338 76.3296 26.0178 75.2808C26.4226 73.128 26.8826 71.012 27.361 68.9144C25.2634 71.656 22.393 75.1336 16.9466 80.1384H16.965ZM105.432 1.01837C103.923 1.07357 102.433 1.18397 100.961 1.38637C100.243 1.47837 99.5258 1.60717 98.8082 1.73597C94.2634 2.76637 96.6922 5.10317 97.5386 5.80237C98.201 6.32983 99.078 6.90637 100.17 7.53197C103.114 5.82077 106.168 4.42237 109.296 3.37357C108.063 2.96877 106.904 2.47197 106.904 2.47197C106.849 2.45357 106.794 2.39837 106.739 2.39837C105.267 1.73597 105.101 1.47837 105.009 1.31277C105.064 1.09197 105.083 1.09197 105.432 1.03677V1.01837ZM33.1386 50.3856C31.961 51.5816 31.317 52.244 30.2866 53.1272C27.134 55.8749 25.1223 57.6045 24.2514 58.316C23.5154 58.9232 22.9266 59.3832 21.3994 60.524C20.2954 61.352 18.897 61.7936 18.0506 62.9712C15.8794 64.4984 13.6346 66.0808 10.9298 67.7184C10.3226 70.184 9.78895 72.7048 9.29215 75.2624C8.88735 77.4336 8.51935 79.6232 8.20655 81.8496C11.3898 79.5864 12.0706 79.0344 14.9226 76.6424C20.2954 72.116 27.4898 64.7744 30.1026 58.96C31.0226 56.016 32.0346 53.164 33.1386 50.3856ZM39.9282 194.2C42.6146 196.61 45.4298 198.745 48.3554 200.566C49.9378 199.683 50.3426 199.278 51.1154 198.469C53.581 195.911 53.7466 192.231 51.557 189.122C51.005 188.514 50.453 187.889 49.901 187.245C48.7786 185.938 47.6746 184.558 46.6074 183.142C46.4786 187.429 44.0682 190.465 43.0378 191.569C42.449 192.194 41.3818 193.335 39.9282 194.2ZM62.2106 10.3288C59.6714 11.304 59.5242 11.3592 58.8066 11.6168L43.3506 17.1C40.3698 18.1058 38.5727 18.7069 37.9594 18.9032C36.8922 19.2344 35.7514 19.2896 34.7762 19.9152C33.4146 21.424 32.0714 23.0064 30.7834 24.6624C29.6978 26.0608 28.6306 27.5144 27.6002 29.0232C30.1026 28.0541 32.8932 26.901 35.9722 25.564C41.4738 23.172 51.9986 18.2408 56.617 14.8368C58.4386 13.1992 60.297 11.7088 62.2106 10.3472V10.3288ZM74.8698 3.63117C66.9578 5.23197 55.4026 7.75277 55.145 7.84477C53.2866 8.24957 51.4282 8.69117 49.5514 9.07757L46.2578 9.79517C43.3874 11.764 40.6458 14.0456 37.9962 16.6032C41.1364 15.6709 44.0559 14.7877 46.7546 13.9536C52.109 12.2976 62.0634 9.09597 68.6874 6.35437C70.7114 5.30557 72.7722 4.38557 74.8698 3.64957V3.63117ZM84.0698 1.38637C85.5418 1.18397 87.0322 1.07357 88.541 1.01837C78.9914 1.20237 68.209 2.36157 68.1538 2.37997C64.3818 2.74797 58.9722 3.35517 58.9722 3.35517C55.8442 4.40397 52.7898 5.80237 49.8458 7.51357C52.8818 6.94317 55.9178 6.35437 58.9538 5.78397C69.2762 3.83357 72.7538 3.17117 81.917 1.73597C82.6346 1.60717 83.3522 1.49677 84.0698 1.38637ZM45.9634 26.7232C46.4786 26.024 46.9938 25.3432 47.509 24.6624C48.5946 23.264 49.6986 21.9392 50.8394 20.6512C49.2938 21.5344 48.521 21.976 47.6378 22.4176C45.025 23.7424 42.449 25.1408 39.8362 26.4472C39.0082 26.852 38.1802 27.2568 37.3338 27.6616C35.8986 28.3424 34.2794 28.6184 33.0282 29.6856C29.9186 31.1024 29.0906 31.4888 27.913 31.9672C27.4162 32.1696 26.9194 32.4088 26.4042 32.6112C25.889 32.832 25.3186 32.8504 24.877 33.2368C22.7426 36.7144 20.7738 40.4312 18.9706 44.3504C22.6138 42.5472 23.1106 42.2896 26.8642 40.192C32.0162 37.3032 41.8418 31.2312 45.945 26.7416L45.9634 26.7232ZM41.0506 34.1752C40.0202 34.9602 38.6892 35.9354 37.0578 37.1008C34.997 38.5605 32.9362 39.9528 30.8754 41.2776C30.029 41.8296 29.0538 42.4184 28.1338 42.9704C26.9378 43.7064 25.5026 44.0376 24.509 45.1232C22.4114 46.3376 21.0314 47.1472 19.7066 47.828L16.8546 49.3184C15.1986 53.4032 13.7266 57.672 12.4386 62.1248C16.0818 59.9168 16.2842 59.788 19.7618 57.3776C24.2698 54.2496 32.513 48.0488 37.021 41.6088C38.2906 39.0328 39.6338 36.5672 41.0506 34.1936V34.1752ZM127.733 206.62C91.8161 206.62 62.5786 160.804 62.5786 104.5C62.5786 48.196 91.8161 2.37997 127.733 2.37997C163.65 2.37997 192.887 48.196 192.887 104.5C192.887 160.804 163.668 206.62 127.733 206.62ZM133.86 187.226C163.466 187.226 187.533 150.114 187.533 104.5C187.533 58.8864 163.447 21.7552 133.86 21.7552C104.273 21.7552 80.169 58.868 80.169 104.5C80.169 150.132 104.255 187.226 133.86 187.226ZM160.908 44.9024C169.096 54.176 175.076 66.9456 178.167 81.8128C179.695 89.1176 180.467 96.7536 180.467 104.5C180.467 112.246 179.695 119.882 178.167 127.187C175.076 142.036 169.096 154.806 160.908 164.079C152.647 173.445 142.803 178.394 132.462 178.394C122.121 178.394 112.277 173.445 104.015 164.079C95.8274 154.806 89.8474 142.054 86.7562 127.187C85.229 119.882 84.4562 112.246 84.4562 104.5C84.4562 96.7536 85.229 89.1176 86.7562 81.8128C89.8474 66.9456 95.8274 54.1944 104.015 44.9024C112.277 35.5368 122.103 30.5872 132.462 30.5872C142.821 30.5872 152.628 35.5368 160.908 44.9024ZM153.419 104.482C153.419 81.8496 141.588 71.8952 132.48 71.8952C120.851 71.8952 111.541 86.5968 111.541 104.482C111.541 122.366 120.87 137.068 132.48 137.068C144.091 137.068 153.419 122.385 153.419 104.482ZM113.252 164.226C117.263 167.465 121.587 169.636 126.077 170.703C126.151 170.722 126.224 170.74 126.298 170.74C127.181 170.74 128.432 169.158 128.432 166.6V145.587C128.432 143.471 127.531 141.87 126.647 141.558C125.231 141.042 123.851 140.343 122.526 139.478C122.323 139.35 122.139 139.276 121.937 139.276C121.385 139.276 120.759 139.846 120.355 140.748L112.406 157.768C111.412 159.902 111.835 163.104 113.252 164.226ZM113.547 74.2504L105.598 57.2488C105.175 56.3288 104.549 55.7768 103.979 55.7768C103.537 55.7768 103.059 56.108 102.672 56.7336C99.397 61.812 96.6738 67.6448 94.5762 74.0848C93.7482 76.624 94.6498 79.476 95.9562 80.12L108.818 86.6152C109.627 87.02 110.474 86.3208 110.989 85.0144C111.67 83.2296 112.498 81.4632 113.436 79.7888C114.283 78.28 114.338 75.9064 113.565 74.2688L113.547 74.2504ZM93.049 90.4608C92.8834 90.3872 92.7362 90.332 92.5706 90.332C91.7242 90.332 90.6754 91.62 90.4546 93.6992C90.0866 97.1952 89.9026 100.82 89.9026 104.463C89.9026 108.106 90.0866 111.731 90.4546 115.227C90.6754 117.306 91.7242 118.594 92.5706 118.594C92.7178 118.594 92.8834 118.558 93.049 118.466L105.892 111.97C106.794 111.51 107.677 109.762 107.567 107.646C107.511 106.598 107.493 105.512 107.493 104.445C107.493 103.378 107.511 102.292 107.567 101.243C107.677 99.1088 106.812 97.3792 105.911 96.9192L93.049 90.424V90.4608ZM94.5762 134.897C96.6922 141.337 99.4154 147.17 102.672 152.23C103.077 152.855 103.537 153.186 103.979 153.186C104.549 153.186 105.175 152.616 105.598 151.714L113.547 134.713C114.319 133.057 114.264 130.702 113.418 129.193C112.498 127.518 111.67 125.77 110.971 123.949C110.566 122.9 109.903 122.219 109.259 122.219C109.112 122.219 108.947 122.256 108.799 122.348L95.9378 128.843C94.6498 129.506 93.7482 132.358 94.5578 134.897H94.5762ZM128.432 42.3632C128.432 39.8056 127.181 38.2232 126.279 38.2232C126.206 38.2232 126.132 38.2232 126.059 38.2416C121.587 39.3088 117.282 41.4984 113.252 44.7368C111.817 45.8776 111.412 49.0608 112.406 51.1952L120.355 68.2152C120.925 69.4296 121.735 70 122.526 69.4848C123.832 68.62 125.212 67.9208 126.629 67.4056C127.512 67.0928 128.414 65.492 128.414 63.376V42.3448L128.432 42.3632ZM136.528 166.618C136.528 169.176 137.761 170.758 138.663 170.758C138.736 170.758 138.81 170.758 138.883 170.74C143.373 169.673 147.679 167.483 151.708 164.263C153.125 163.122 153.548 159.921 152.555 157.805L144.606 140.785C144.183 139.883 143.575 139.313 143.023 139.313C142.839 139.313 142.637 139.386 142.435 139.515C141.091 140.398 139.711 141.098 138.331 141.594C137.448 141.907 136.547 143.508 136.547 145.624V166.637L136.528 166.618ZM151.708 44.7552C147.66 41.4984 143.355 39.3272 138.883 38.26C138.81 38.26 138.736 38.2416 138.663 38.2416C137.761 38.2416 136.528 39.8056 136.528 42.3816V63.4128C136.528 65.5288 137.43 67.1296 138.313 67.4424C139.711 67.9392 141.091 68.6384 142.416 69.5216C143.189 70.0368 144.035 69.448 144.587 68.252L152.536 51.2504C153.53 49.116 153.107 45.9144 151.69 44.792L151.708 44.7552ZM151.414 134.713L159.344 151.714C159.767 152.616 160.393 153.186 160.963 153.186C161.405 153.186 161.883 152.837 162.288 152.23C165.563 147.17 168.287 141.337 170.384 134.897C171.212 132.358 170.311 129.506 169.004 128.843L156.161 122.348C155.995 122.274 155.848 122.219 155.701 122.219C155.075 122.219 154.413 122.9 153.99 123.949C153.291 125.752 152.463 127.518 151.543 129.174C150.696 130.683 150.641 133.057 151.414 134.694V134.713ZM159.068 112.026L171.911 118.521C172.059 118.594 172.224 118.631 172.371 118.631C173.218 118.631 174.267 117.343 174.487 115.264C174.855 111.676 175.039 108.051 175.039 104.5C175.039 100.949 174.855 97.3056 174.487 93.736C174.267 91.6568 173.218 90.3688 172.371 90.3688C172.224 90.3688 172.059 90.4056 171.911 90.4976L159.05 96.9928C158.13 97.4528 157.265 99.2008 157.375 101.317C157.431 102.366 157.449 103.433 157.449 104.518C157.449 105.604 157.431 106.671 157.375 107.72C157.247 109.836 158.13 111.584 159.05 112.062L159.068 112.026ZM170.384 74.0848C168.287 67.6632 165.563 61.8304 162.288 56.7336C161.883 56.1264 161.423 55.7768 160.982 55.7768C160.411 55.7768 159.786 56.3472 159.363 57.2488L151.432 74.2504C150.659 75.9064 150.715 78.28 151.543 79.7704C152.481 81.4816 153.309 83.2296 153.99 85.0144C154.505 86.3024 155.351 87.02 156.161 86.6152L169.023 80.1016C170.329 79.4392 171.231 76.6056 170.403 74.0664L170.384 74.0848ZM132.48 134.29C142.324 134.29 150.641 120.637 150.641 104.482C150.641 82.7696 139.509 74.6736 132.48 74.6736C122.636 74.6736 114.319 88.3264 114.319 104.482C114.319 120.637 122.636 134.29 132.48 134.29Z" fill="#E8EAEE"/>
</g>
</svg>
