<svg width="42" height="42" viewBox="0 0 42 42" fill="none" xmlns="http://www.w3.org/2000/svg">
<circle cx="21" cy="21" r="21" fill="#F1F3F7"/>
<path d="M21.12 21.78C21.05 21.77 20.96 21.77 20.88 21.78C19.12 21.72 17.72 20.28 17.72 18.51C17.72 16.7 19.18 15.23 21 15.23C22.81 15.23 24.28 16.7 24.28 18.51C24.27 20.28 22.88 21.72 21.12 21.78Z" fill="#243228" stroke="#243228" stroke-width="1.5" stroke-linecap="round" stroke-linejoin="round"/>
<path d="M27.74 28.3801C25.96 30.0101 23.6 31.0001 21 31.0001C18.4 31.0001 16.04 30.0101 14.26 28.3801C14.36 27.4401 14.96 26.5201 16.03 25.8001C18.77 23.9801 23.25 23.9801 25.97 25.8001C27.04 26.5201 27.64 27.4401 27.74 28.3801Z" fill="#243228" stroke="#243228" stroke-width="1.5" stroke-linecap="round" stroke-linejoin="round"/>
<path d="M21 31C26.5228 31 31 26.5228 31 21C31 15.4772 26.5228 11 21 11C15.4772 11 11 15.4772 11 21C11 26.5228 15.4772 31 21 31Z" stroke="#243228" stroke-width="1.5" stroke-linecap="round" stroke-linejoin="round"/>
</svg>
