<svg width="227" height="40" viewBox="0 0 227 40" fill="none" xmlns="http://www.w3.org/2000/svg">
<g id="_&#208;&#161;&#208;&#187;&#208;&#190;&#208;&#185;_1" clip-path="url(#clip0_1_1604)">
<g id="Group">
<path id="Vector" d="M144.375 18.3665L146.09 8.53474V7.99743C146.09 7.41127 145.927 6.93637 145.601 6.57816C145.175 6.08969 144.475 5.84546 143.498 5.84546H141.151C140.008 5.84546 139.17 6.09783 138.632 6.60258C138.095 7.10733 137.758 7.75048 137.628 8.52931L133.422 32.4452V32.9825C133.422 33.5687 133.609 34.0734 133.984 34.4967C134.358 34.9201 135.031 35.1318 136.005 35.1318H138.345C139.482 35.1318 140.318 34.8794 140.855 34.3773C141.392 33.8753 141.723 33.2322 141.853 32.4533L143.802 21.2457H140.782L138.589 33.6718H136.25L138.993 18.3719H144.38L144.375 18.3665ZM140.923 7.30543H143.262L141.558 16.9038H139.218L140.923 7.30543Z" fill="#243228"/>
<path id="Vector_2" d="M211.821 1.02051H206.657L206.217 3.69894H211.384L211.821 1.02051Z" fill="#21AB4A"/>
<path id="Vector_3" d="M112.274 13.8345L113.685 5.89148H110.665L105.501 35.1289H108.521L111.786 16.5645L114.806 12.8603L110.86 35.1289H113.881L119.145 5.15063L112.274 13.8345Z" fill="#243228"/>
<path id="Vector_4" d="M97.1669 10.1222C96.1275 12.9824 95.2022 16.768 94.3881 21.479L92 35.1262H95.0204L100.185 5.87794H102.524L97.3596 35.1262H100.38L102.768 21.479C103.189 19.0747 103.506 16.9851 103.718 15.2158C103.929 13.4437 104.035 11.7965 104.035 10.2687C104.035 6.98784 103.465 3.65542 102.331 0.276855C100.09 3.46274 98.3664 6.74361 97.1669 10.1222Z" fill="#243228"/>
<path id="Vector_5" d="M124.887 6.59987C124.35 7.10462 124.014 7.74777 123.886 8.5266L119.68 32.4425V32.9798C119.68 33.5659 119.867 34.0707 120.242 34.494C120.616 34.9174 121.289 35.129 122.263 35.129H124.602L123.97 38.5402H118.611L118.366 40.0028H123.726C124.863 40.0028 125.739 39.7098 126.358 39.1236C126.811 38.6677 127.104 38.0815 127.235 37.3678L132.79 5.84546H127.408C126.266 5.84546 125.427 6.09783 124.89 6.60258L124.887 6.59987ZM124.844 33.6663H122.505L127.183 7.30543H129.522L124.844 33.6663Z" fill="#243228"/>
<path id="Vector_6" d="M205.829 13.8346L207.24 5.89161H204.22L199.056 35.129H202.076L205.341 16.5646L208.361 12.8604L204.415 35.129H207.436L212.697 5.16162L205.829 13.8346Z" fill="#21AB4A"/>
<path id="Vector_7" d="M220.963 5.84277C219.821 5.84277 218.982 6.09515 218.445 6.5999C217.908 7.10464 217.571 7.74779 217.444 8.52662L213.238 32.4425V32.9798C213.238 33.566 213.425 34.0707 213.799 34.494C214.174 34.9174 214.847 35.129 215.821 35.129H218.16L217.528 38.5402H212.168L211.924 40.0029H217.284C218.421 40.0029 219.297 39.7098 219.916 39.1236C220.369 38.6677 220.662 38.0816 220.792 37.3678L226.347 5.84549H220.966L220.963 5.84277ZM218.402 33.6636H216.062L220.741 7.30274H223.08L218.402 33.6636Z" fill="#21AB4A"/>
<path id="Vector_8" d="M195.829 5.84277H193.482C192.339 5.84277 191.501 6.09515 190.963 6.5999C190.426 7.10465 190.09 7.74779 189.959 8.52663L185.753 32.4425V32.9798C185.753 33.566 185.94 34.0707 186.315 34.4941C186.689 34.9174 187.362 35.1291 188.337 35.1291H190.676C191.813 35.1291 192.649 34.8767 193.186 34.3746C193.723 33.8726 194.054 33.2295 194.185 32.4506L196.133 21.243H193.113L190.92 33.6691H188.581L191.324 18.3692H196.711L198.426 8.53748V8.00017C198.426 7.41401 198.263 6.93911 197.938 6.5809C197.512 6.09243 196.811 5.8482 195.834 5.8482L195.829 5.84277ZM193.889 16.9038H191.55L193.254 7.30546H195.593L193.889 16.9038Z" fill="#21AB4A"/>
<path id="Vector_9" d="M182.1 5.84259H176.741L170.697 40H173.729L174.608 35.1262H176.955C178.095 35.1262 178.934 34.8738 179.474 34.369C180.011 33.8643 180.345 33.2212 180.478 32.4396L184.684 8.52373V7.98641C184.684 7.40025 184.521 6.92807 184.195 6.56986C183.772 6.08139 183.075 5.83716 182.1 5.83716V5.84259ZM177.178 33.6635H174.839L179.517 7.30256H181.856L177.178 33.6635Z" fill="#21AB4A"/>
<path id="Vector_10" d="M174.157 1.02051H164.507L164.266 2.48319H167.579L161.829 35.1291H164.849L170.6 2.48319H173.913L174.157 1.02051Z" fill="#21AB4A"/>
<path id="Vector_11" d="M157.248 5.84259H151.889L145.845 40H148.877L149.756 35.1262H152.103C153.243 35.1262 154.081 34.8738 154.621 34.369C155.159 33.8643 155.493 33.2212 155.626 32.4396L159.832 8.52373V7.98641C159.832 7.40025 159.669 6.92807 159.343 6.56986C158.92 6.08139 158.223 5.83716 157.248 5.83716V5.84259ZM152.326 33.6635H149.986L154.665 7.30256H157.004L152.326 33.6635Z" fill="#243228"/>
</g>
<g id="Group_2">
<path id="Vector_12" d="M67.1181 23.243C66.749 22.684 66.5536 22.0572 66.4749 21.3977C66.4098 20.8414 66.3881 20.2797 66.5401 19.7315C66.8359 18.6732 67.555 17.9567 68.5346 17.5524C69.5794 17.1209 70.6866 16.8903 71.8291 16.8903C72.0217 16.8903 72.1411 16.8387 72.247 16.6705C73.5387 14.6487 74.8386 12.6297 76.1357 10.6108C76.1737 10.5511 76.209 10.4859 76.2524 10.4072C76.1764 10.334 76.1113 10.2607 76.0326 10.201C75.6581 9.92147 75.2836 9.63653 74.901 9.36788C74.6595 9.19691 74.3935 9.06123 74.152 8.89026C73.0774 8.125 72.1601 7.19963 71.4166 6.10872C71.3922 6.07344 71.3705 6.04088 71.346 6.00831C71.1181 5.73694 70.8467 5.73694 70.616 6.0056C70.5455 6.08701 70.4776 6.16842 70.399 6.24169C69.9838 6.6406 69.5658 7.03681 69.1534 7.43572C68.8386 7.74237 68.4939 8.0056 68.0977 8.19827C67.7395 8.37466 67.365 8.48592 66.9607 8.48321C65.5116 8.4805 64.0652 8.4805 62.616 8.47778C62.5591 8.47778 62.4966 8.46693 62.4451 8.4805C62.38 8.49949 62.3121 8.53206 62.2633 8.57819C62.2171 8.62161 62.1873 8.68402 62.152 8.74101C59.9051 12.239 57.6554 15.7397 55.4084 19.2376C53.4844 22.2308 51.5631 25.2268 49.6391 28.22C49.5957 28.2878 49.5577 28.3584 49.5089 28.4425C49.5686 28.4588 49.6065 28.4724 49.6445 28.4805C50.4586 28.6569 51.2863 28.741 52.1167 28.7573C53.2999 28.779 54.4641 28.6433 55.6038 28.3204C56.9064 27.9513 58.1194 27.3977 59.1913 26.5619C59.3487 26.4398 59.4709 26.4208 59.6527 26.4941C61.2131 27.1318 62.7762 27.7586 64.3392 28.3882C64.4288 28.4235 64.5211 28.4588 64.635 28.5022C65.6391 26.9418 66.6242 25.4086 67.6038 23.8835C67.4302 23.6555 67.2592 23.4574 67.1154 23.2376L67.1181 23.243Z" fill="#21AB4A"/>
<path id="Vector_13" d="M60.2524 8.70566C60.2904 8.64596 60.3203 8.58355 60.3773 8.48314C60.2579 8.48314 60.1792 8.48043 60.1005 8.48314C59.4193 8.51028 58.7355 8.52927 58.0543 8.57269C57.0258 8.63782 56.0136 8.81964 55.0285 9.12357C54.2389 9.36509 53.5469 9.74773 52.9471 10.3393C51.8427 11.4275 50.5971 12.3475 49.2185 13.072C47.9702 13.7287 46.6703 14.2199 45.2375 14.266C45.034 14.2715 44.9553 14.3963 44.8657 14.5374C42.9553 17.5116 41.0475 20.4859 39.1371 23.4601C39.0177 23.6473 38.901 23.8346 38.7653 24.049C38.9064 24.1168 39.0177 24.1711 39.129 24.2226C41.0801 25.0965 43.0285 25.9757 44.9824 26.8414C45.8481 27.224 46.7246 27.5741 47.5984 27.935C47.8345 28.0327 47.8427 28.0218 47.9729 27.8156C48.437 27.0965 48.8983 26.3773 49.3596 25.6582C51.2538 22.7138 53.1452 19.7667 55.0394 16.8196C56.7762 14.1168 58.5157 11.4112 60.2524 8.70838V8.70566Z" fill="#21AB4A"/>
<path id="Vector_14" d="M34.209 11.3516C30.5183 17.0992 26.8331 22.836 23.1506 28.57C23.1642 28.589 23.1751 28.6053 23.1886 28.6243C23.3677 28.6053 23.5468 28.5944 23.7232 28.5646C25.7205 28.2172 27.3487 27.243 28.6187 25.6691C29.2538 24.8794 29.9349 24.1331 30.7246 23.4954C31.1941 23.1182 31.6852 22.7735 32.247 22.5456C32.3718 22.494 32.5156 22.4615 32.6513 22.4615C33.4817 22.4533 34.3121 22.4615 35.1452 22.456C35.289 22.456 35.4139 22.4886 35.5441 22.5537C36.0353 22.8007 36.5319 23.0368 37.0285 23.2756C37.0936 23.3081 37.1642 23.3271 37.2592 23.3624C39.2212 20.3122 41.1778 17.2674 43.1561 14.1928C40.0353 13.6229 37.1181 12.5239 34.2144 11.3516H34.209Z" fill="#21AB4A"/>
<path id="Vector_15" d="M29.593 15.4873C30.5346 14.0219 31.479 12.5565 32.4206 11.091C32.4722 11.0124 32.5156 10.9309 32.5726 10.8305C31.867 10.6677 31.1913 10.589 30.5102 10.5592C29.1479 10.4967 27.8019 10.6297 26.464 10.8957C26.2659 10.9364 26.133 11.0205 26.0217 11.1969C24.4233 13.6962 22.8168 16.1928 21.213 18.6894C19.0312 22.0843 16.8494 25.4818 14.6676 28.8767C14.6296 28.9364 14.5943 29.0015 14.5346 29.0992C14.6323 29.0694 14.6947 29.0558 14.7544 29.0341C14.9525 28.9554 15.1479 28.8658 15.3487 28.7953C15.4627 28.7546 15.5875 28.7247 15.7069 28.722C17.4111 28.7003 19.1126 28.6813 20.8168 28.6759C21.0448 28.6759 21.1723 28.6026 21.2917 28.4153C21.924 27.414 22.5672 26.4208 23.2076 25.4248C25.3379 22.1141 27.4654 18.8007 29.5957 15.49L29.593 15.4873Z" fill="#21AB4A"/>
<path id="Vector_16" d="M86.4017 34.8388C86.1873 33.4819 85.4247 32.5755 84.1357 32.1033C83.9186 32.0246 83.6934 31.9894 83.46 31.9867C82.8006 31.9867 82.1439 31.9704 81.4844 31.9649C81.3569 31.9649 81.2456 31.9324 81.1344 31.8673C80.247 31.3462 79.3596 30.8306 78.4722 30.3123C75.3677 28.5023 72.266 26.6922 69.1615 24.8822C69.1018 24.8469 69.0367 24.817 68.9552 24.7791C68.0244 26.2255 67.1072 27.6556 66.1683 29.1156C66.285 29.1671 66.3718 29.2105 66.4614 29.2458C69.1072 30.3123 71.7531 31.3761 74.3989 32.4426C76.5401 33.3055 78.6839 34.1712 80.825 35.0314C80.9444 35.0803 81.0774 35.121 81.2022 35.121C82.8711 35.1264 84.5428 35.1264 86.2117 35.1237C86.2741 35.1237 86.3365 35.1074 86.4098 35.0993C86.4044 34.9989 86.4098 34.9175 86.3962 34.836L86.4017 34.8388Z" fill="#21AB4A"/>
<path id="Vector_17" d="M16.4261 22.9933C16.209 22.9553 16 22.9173 15.7884 22.8847C14.6133 22.6975 13.4356 22.5156 12.2605 22.3148C12.0733 22.2823 11.9729 22.3257 11.8779 22.4804C11.574 22.9688 11.2592 23.4492 10.9471 23.9349C9.16964 26.7002 7.39216 29.4654 5.61468 32.2307C5.56312 32.3094 5.51428 32.3935 5.43829 32.5184C5.56855 32.4804 5.64725 32.4614 5.72323 32.4342C7.7368 31.7667 9.7178 31.0123 11.6934 30.2497C11.8074 30.2063 11.8888 30.1412 11.9539 30.038C12.1059 29.7938 12.2633 29.555 12.4207 29.3108C13.7232 27.2863 15.0231 25.2592 16.323 23.2321C16.3664 23.1642 16.4532 23.1045 16.4234 22.9933H16.4261Z" fill="#21AB4A"/>
<path id="Vector_18" d="M8.85213 24.1357C8.85213 24.1357 8.83585 24.1221 8.83042 24.1167C5.89691 26.9525 2.96611 29.7856 0.00274658 32.6513C0.0841577 32.6974 0.116722 32.7219 0.152 32.7354C0.697455 32.9661 1.25648 33.156 1.84264 33.2646C2.15743 33.3216 2.47222 33.3731 2.79243 33.2944C2.93626 33.2592 3.04209 33.2022 3.12079 33.0692C3.29447 32.7788 3.48171 32.502 3.66353 32.2171C5.25376 29.7422 6.84399 27.27 8.43151 24.7951C8.57262 24.5753 8.71102 24.3555 8.84942 24.1357H8.85213Z" fill="#21AB4A"/>
<path id="Vector_19" d="M74.6568 17.6229C74.9363 17.802 75.2239 17.9539 75.5469 18.0381C76.1737 18.2036 76.7653 18.1547 77.3026 17.7504C77.5984 17.5279 77.9132 17.3325 78.2172 17.1208C78.7599 16.7436 78.9064 15.9024 78.5238 15.3678C78.2172 14.939 77.9675 14.4777 77.7531 13.9974C77.517 13.4655 77.4085 12.9037 77.2809 12.3447C77.2592 12.2443 77.2294 12.1466 77.2022 12.0462C77.1859 12.0462 77.1669 12.0435 77.1507 12.0408C76.0516 13.7504 74.9526 15.46 73.8535 17.1724C74.1466 17.3379 74.4125 17.4682 74.6595 17.6283L74.6568 17.6229Z" fill="#21AB4A"/>
<path id="Vector_20" d="M20.4722 14.4588C20.8223 14.6407 21.0828 14.9012 21.2293 15.2702C21.251 15.3218 21.2727 15.3706 21.2945 15.4195C21.3243 15.4113 21.3433 15.4113 21.3514 15.4005C21.3786 15.3706 21.4003 15.3354 21.422 15.3001C22.1791 14.1169 22.9362 12.931 23.6907 11.7478C23.6934 11.7424 23.6907 11.7316 23.6907 11.7234C23.6907 11.7153 23.6825 11.7099 23.6825 11.7099C22.3582 11.2268 20.9797 11.0721 19.5957 10.9473C19.384 10.9283 19.2538 10.9853 19.1371 11.178C18.6622 11.9459 18.1628 12.7031 17.6744 13.4629C17.6174 13.5497 17.5685 13.642 17.498 13.7641C17.9973 13.8537 18.4559 13.9459 18.9145 14.0165C19.4546 14.0979 19.9837 14.201 20.4722 14.4561V14.4588Z" fill="#21AB4A"/>
<path id="Vector_21" d="M15.7395 13.3678C15.9484 13.1399 17.2782 11.0449 17.3324 10.8577C16.0461 10.6813 14.7897 10.3828 13.5468 9.96484C13.0909 10.6758 12.6431 11.3705 12.1764 12.0978C12.5346 12.2823 12.8575 12.4859 13.2049 12.6216C14.0244 12.9363 14.8765 13.1562 15.7422 13.3678H15.7395Z" fill="#21AB4A"/>
<path id="Vector_22" d="M3.62822 6.01634C3.65264 5.98377 3.66893 5.96478 3.6825 5.94307C4.25509 5.05297 4.82496 4.16016 5.40027 3.27278C5.47625 3.15609 5.46269 3.06925 5.39213 2.96071C5.05563 2.43425 4.62415 2.00005 4.11126 1.64727C4.06784 1.61742 4.01357 1.60114 3.94572 1.57129C3.24288 2.6622 2.55088 3.74497 1.85889 4.82231C2.35007 5.38404 2.96336 5.70969 3.62551 6.01634H3.62822Z" fill="#21AB4A"/>
<path id="Vector_23" d="M12.0299 9.2646C11.2212 8.70015 10.4451 8.1547 9.64725 7.59839C9.27819 8.17369 8.90912 8.74357 8.52649 9.33787C9.24562 10.0109 9.96747 10.6377 10.7897 11.1913C11.2158 10.5292 11.6228 9.89418 12.0272 9.26732L12.0299 9.2646Z" fill="#21AB4A"/>
<path id="Vector_24" d="M7.22661 8.30666C7.6201 7.69336 8.00273 7.09906 8.37993 6.51019C7.75578 5.8779 7.14791 5.25917 6.50748 4.6106C6.0163 5.37586 5.54411 6.11127 5.06921 6.8494C5.80191 7.34601 6.50748 7.82091 7.22661 8.30666Z" fill="#21AB4A"/>
<path id="Vector_25" d="M0.274129 1.64999C0.341971 2.19001 0.464088 2.71376 0.705608 3.20494C0.732745 3.25921 0.770737 3.30535 0.822297 3.38404C1.36775 2.53465 1.89421 1.71512 2.42881 0.879295C2.36911 0.833162 2.34469 0.808739 2.31755 0.79517C1.82365 0.556364 1.32705 0.314844 0.830438 0.0814658C0.732745 0.0407602 0.62691 0.0136232 0.521076 5.46745e-05C0.303979 -0.0189413 0.146584 0.097748 0.127588 0.312131C0.111306 0.488521 0.127588 0.67034 0.146584 0.849444C0.179149 1.1181 0.23885 1.38133 0.274129 1.64999Z" fill="#21AB4A"/>
</g>
</g>
<defs>
<clipPath id="clip0_1_1604">
<rect width="226.342" height="40" fill="white"/>
</clipPath>
</defs>
</svg>
