<svg version="1.2" xmlns="http://www.w3.org/2000/svg" viewBox="0 0 1277 145" width="1277" height="145">
	<title>New Project</title>
	<style>
		.s0 { fill: #1e2a23 } 
		.s1 { fill: #3db951 } 
	</style>
	<path id="path78" class="s0" d="m103.2 42.5c0.3 0.5 0.3 1.1 0 1.7l-40.7 76.2-0.3 0.6c-7.6 14.1-22.5 23.7-39.5 23.7l-20.8 0.2c-1.4 0-2.2-1.5-1.6-2.6l78.9-140.8c0.3-0.7 1.3-0.7 1.6 0z"/>
	<path id="path82" class="s0" d="m158.6 142.3c0.6 1.2-0.2 2.6-1.6 2.6h-19.8c-0.3 0-0.5 0-0.7 0-16-0.2-30.1-8.8-37.9-21.4l-13.9-24.8c-0.3-0.5-0.3-1.2 0-1.7l22.9-41.3c0.6-1.2 2.4-1.2 3 0z"/>
	<path id="path86" class="s0" d="m295.4 0c0 0-185.5 0-202.2 0-1.3 0-2.1 1.4-1.5 2.6l21.8 39.8c0.3 0.5 0.9 0.9 1.5 0.9h22.2v41.5q0 0.4 0.2 0.8l32.4 58.4c0.3 0.6 0.8 0.9 1.5 0.9h7.4c0.9 0 1.7-0.8 1.7-1.8v-99.8h63.6c5.7 0 11.2-0.9 16.5-2.4 18.4-5.4 32.5-20.1 37.3-38 0.4-1.5-0.8-2.9-2.4-2.9z"/>
	<path id="path90" class="s1" d="m267.5 52.1c1.4 0 2.4 1.5 2.1 3-4.2 18.1-16.9 32.6-33.1 38.1-4.6 1.5-9.5 2.4-14.5 2.4h-30.2c-1.2 0-2.2-1.1-2.2-2.4v-38.7c0-1.3 1-2.4 2.2-2.4z"/>
	<path id="path94" class="s1" d="m238.9 104.2c0.9 0 1.5 1.4 1.3 2.8-2.7 17-10.7 30.5-20.9 35.6-2.9 1.5-6 2.3-9.2 2.3h-19.1c-0.8 0-1.4-1-1.4-2.2v-36.3c0-1.2 0.6-2.2 1.4-2.2z"/>
	<path id="path98" class="s1" d="m1126 22.2c0 2.9 0 3.1 3.6 3.2 4.3-0.1 4.4-0.4 4.4-3.2h11c0 7.6 0 11-14.4 10.8h-2.4c-13.3 0-13.1-3-13.3-10.8z"/>
	<path id="path102" class="s0" d="m409.5 125.6h-29v-68.7h-26.9v43.6q0 14.8-3.8 19.6-4.4 5.5-18.8 5.5h-14.4v-25.1h8.7v-44.6q0-13.5 7.4-18.6 6-4.3 20.2-4.3h56.6z"/>
	<path id="path106" class="s0" d="m509.9 125.6h-27.9v-52.3l-33.4 52.3h-28v-92.6h28v52.4l33.4-52.4h27.9z"/>
	<path id="path110" fill-rule="evenodd" class="s0" d="m619.8 125.6h-102.3v-25.1h8.8v-44.6q0-13.7 7.5-18.7 6.2-4.2 20.7-4.2h56.6v67.5h8.7zm-37.6-25v-43.6h-27.7v43.6z"/>
	<path id="path114" class="s0" d="m705.8 125.6h-78.4v-92.6h78.4v23.9h-49.3v12.1h45v19.6h-45v11.9h49.3z"/>
	<path id="path118" fill-rule="evenodd" class="s0" d="m802.8 69q0 20.3-21.9 20.3h-37.1v36.3h-28.6v-92.6h62.5q13.9 0 19.5 5.1 5.6 5.1 5.6 18.8zm-28.6 0.7v-12.7h-30.4v12.7z"/>
	<path id="path122" class="s1" d="m893.8 56.9h-28.3v68.7h-29.1v-68.7h-28.2v-23.9h85.6z"/>
	<path id="path126" fill-rule="evenodd" class="s1" d="m989.3 69q0 20.3-21.9 20.3h-37.1v36.3h-28.6v-92.6h62.5q13.9 0 19.5 5.1 5.6 5.1 5.6 18.8zm-28.6 0.7v-12.7h-30.4v12.7z"/>
	<path id="path130" class="s1" d="m1075.9 125.6h-78.4v-92.6h78.4v23.9h-49.4v12.1h45v19.6h-45v11.9h49.4z"/>
	<path id="path134" class="s1" d="m1174.6 125.6h-27.9v-52.3l-33.4 52.3h-28v-92.6h28v52.4l33.4-52.4h27.9z"/>
	<path id="path138" fill-rule="evenodd" class="s1" d="m1284.5 125.6h-102.3v-25.1h8.7v-44.6q0-13.7 7.6-18.7 6.2-4.2 20.7-4.2h56.6v67.5h8.7zm-37.6-25v-43.6h-27.7v43.6z"/>
</svg>