<svg width="54" height="54" viewBox="0 0 54 54" fill="none" xmlns="http://www.w3.org/2000/svg">
<path d="M29.2725 6.56997L42.5475 12.465C46.3725 14.1525 46.3725 16.9425 42.5475 18.63L29.2725 24.525C27.765 25.2 25.29 25.2 23.7825 24.525L10.5075 18.63C6.68251 16.9425 6.68251 14.1525 10.5075 12.465L23.7825 6.56997C25.29 5.89497 27.765 5.89497 29.2725 6.56997Z" stroke="#21AB4A" stroke-width="1.5" stroke-linecap="round" stroke-linejoin="round"/>
<path d="M6.75 24.75C6.75 26.64 8.1675 28.8225 9.9 29.5875L25.1775 36.3825C26.3475 36.9 27.675 36.9 28.8225 36.3825L44.1 29.5875C45.8325 28.8225 47.25 26.64 47.25 24.75" stroke="#21AB4A" stroke-width="1.5" stroke-linecap="round" stroke-linejoin="round"/>
<path d="M6.75 36C6.75 38.0925 7.9875 39.9825 9.9 40.8375L25.1775 47.6325C26.3475 48.15 27.675 48.15 28.8225 47.6325L44.1 40.8375C46.0125 39.9825 47.25 38.0925 47.25 36" stroke="#21AB4A" stroke-width="1.5" stroke-linecap="round" stroke-linejoin="round"/>
</svg>
