<svg width="54" height="54" viewBox="0 0 54 54" fill="none" xmlns="http://www.w3.org/2000/svg">
<path d="M19.2827 34.3575L33.9976 19.6426" stroke="#21AB4A" stroke-width="1.5" stroke-linecap="round" stroke-linejoin="round"/>
<path d="M20.205 23.3325C21.7335 23.3325 22.9725 22.0935 22.9725 20.565C22.9725 19.0366 21.7335 17.7975 20.205 17.7975C18.6766 17.7975 17.4375 19.0366 17.4375 20.565C17.4375 22.0935 18.6766 23.3325 20.205 23.3325Z" stroke="#21AB4A" stroke-width="1.5" stroke-linecap="round" stroke-linejoin="round"/>
<path d="M34.92 36.2025C36.4485 36.2025 37.6876 34.9634 37.6876 33.4349C37.6876 31.9065 36.4485 30.6675 34.92 30.6675C33.3916 30.6675 32.1526 31.9065 32.1526 33.4349C32.1526 34.9634 33.3916 36.2025 34.92 36.2025Z" stroke="#21AB4A" stroke-width="1.5" stroke-linecap="round" stroke-linejoin="round"/>
<path d="M27 49.5C39.4264 49.5 49.5 39.4264 49.5 27C49.5 14.5736 39.4264 4.5 27 4.5C14.5736 4.5 4.5 14.5736 4.5 27C4.5 39.4264 14.5736 49.5 27 49.5Z" stroke="#21AB4A" stroke-width="1.5" stroke-linecap="round" stroke-linejoin="round"/>
</svg>
