<svg width="54" height="54" viewBox="0 0 54 54" fill="none" xmlns="http://www.w3.org/2000/svg">
<path d="M41.625 43.875H32.625" stroke="#21AB4A" stroke-width="1.5" stroke-linecap="round" stroke-linejoin="round"/>
<path d="M37.125 48.375V39.375" stroke="#21AB4A" stroke-width="1.5" stroke-linecap="round" stroke-linejoin="round"/>
<path d="M27.36 24.4575C27.135 24.435 26.865 24.435 26.6175 24.4575C21.2625 24.2775 17.01 19.89 17.01 14.49C16.9875 8.9775 21.465 4.5 26.9775 4.5C32.49 4.5 36.9675 8.9775 36.9675 14.49C36.9675 19.89 32.6925 24.2775 27.36 24.4575Z" stroke="#21AB4A" stroke-width="1.5" stroke-linecap="round" stroke-linejoin="round"/>
<path d="M26.9775 49.0725C22.8825 49.0725 18.81 48.0375 15.705 45.9675C10.26 42.3225 10.26 36.3825 15.705 32.76C21.8925 28.62 32.04 28.62 38.2275 32.76" stroke="#21AB4A" stroke-width="1.5" stroke-linecap="round" stroke-linejoin="round"/>
</svg>
