<svg width="54" height="54" viewBox="0 0 54 54" fill="none" xmlns="http://www.w3.org/2000/svg">
<path d="M6.75 20.4976V33.4801C6.75 38.2501 6.75 38.2501 11.25 41.2876L23.625 48.4426C25.4925 49.5226 28.53 49.5226 30.375 48.4426L42.75 41.2876C47.25 38.2501 47.25 38.2501 47.25 33.5026V20.4976C47.25 15.7501 47.25 15.7501 42.75 12.7126L30.375 5.55756C28.53 4.47756 25.4925 4.47756 23.625 5.55756L11.25 12.7126C6.75 15.7501 6.75 15.7501 6.75 20.4976Z" stroke="#21AB4A" stroke-width="1.5" stroke-linecap="round" stroke-linejoin="round"/>
<path d="M27 33.75C30.7279 33.75 33.75 30.7279 33.75 27C33.75 23.2721 30.7279 20.25 27 20.25C23.2721 20.25 20.25 23.2721 20.25 27C20.25 30.7279 23.2721 33.75 27 33.75Z" stroke="#21AB4A" stroke-width="1.5" stroke-linecap="round" stroke-linejoin="round"/>
</svg>
