<svg width="26" height="26" viewBox="0 0 26 26" fill="none" xmlns="http://www.w3.org/2000/svg">
<path d="M10.8333 23.8334H15.1667C20.5833 23.8334 22.75 21.6667 22.75 16.2501V9.75008C22.75 4.33341 20.5833 2.16675 15.1667 2.16675H10.8333C5.41667 2.16675 3.25 4.33341 3.25 9.75008V16.2501C3.25 21.6667 5.41667 23.8334 10.8333 23.8334Z" stroke="#21AB4A" stroke-width="1.5" stroke-linecap="round" stroke-linejoin="round"/>
<path d="M17.875 8.21167V9.295C17.875 10.1833 17.1492 10.92 16.25 10.92H9.75C8.86167 10.92 8.125 10.1942 8.125 9.295V8.21167C8.125 7.32334 8.85083 6.58667 9.75 6.58667H16.25C17.1492 6.58667 17.875 7.3125 17.875 8.21167Z" stroke="#21AB4A" stroke-width="1.5" stroke-linecap="round" stroke-linejoin="round"/>
<path d="M8.81413 15.1667H8.82665" stroke="#21AB4A" stroke-width="2" stroke-linecap="round" stroke-linejoin="round"/>
<path d="M12.9948 15.1667H13.0073" stroke="#21AB4A" stroke-width="2" stroke-linecap="round" stroke-linejoin="round"/>
<path d="M17.1755 15.1667H17.188" stroke="#21AB4A" stroke-width="2" stroke-linecap="round" stroke-linejoin="round"/>
<path d="M8.81413 18.9584H8.82665" stroke="#21AB4A" stroke-width="2" stroke-linecap="round" stroke-linejoin="round"/>
<path d="M12.9948 18.9584H13.0073" stroke="#21AB4A" stroke-width="2" stroke-linecap="round" stroke-linejoin="round"/>
<path d="M17.1755 18.9584H17.188" stroke="#21AB4A" stroke-width="2" stroke-linecap="round" stroke-linejoin="round"/>
</svg>
