<svg width="26" height="26" viewBox="0 0 26 26" fill="none" xmlns="http://www.w3.org/2000/svg">
<path d="M13.9642 6.37012H5.53584C3.68334 6.37012 2.16669 7.88677 2.16669 9.73927V22.046C2.16669 23.6168 3.29335 24.2884 4.66918 23.5193L8.92668 21.1468C9.38168 20.8976 10.1184 20.8976 10.5625 21.1468L14.82 23.5193C16.1958 24.2884 17.3225 23.6168 17.3225 22.046V9.73927C17.3333 7.88677 15.8167 6.37012 13.9642 6.37012Z" stroke="#21AB4A" stroke-width="1.5" stroke-linecap="round" stroke-linejoin="round"/>
<path d="M17.3334 9.73927V22.046C17.3334 23.6168 16.2067 24.2776 14.8309 23.5193L10.5734 21.1468C10.1184 20.8976 9.38168 20.8976 8.92668 21.1468L4.66918 23.5193C3.29335 24.2776 2.16669 23.6168 2.16669 22.046V9.73927C2.16669 7.88677 3.68334 6.37012 5.53584 6.37012H13.9642C15.8167 6.37012 17.3334 7.88677 17.3334 9.73927Z" stroke="#21AB4A" stroke-width="1.5" stroke-linecap="round" stroke-linejoin="round"/>
<path d="M23.8334 5.5359V17.8426C23.8334 19.4134 22.7067 20.0742 21.3309 19.3159L17.3334 17.0842V9.73924C17.3334 7.88674 15.8167 6.37009 13.9642 6.37009H8.66669V5.5359C8.66669 3.6834 10.1833 2.16675 12.0358 2.16675H20.4642C22.3167 2.16675 23.8334 3.6834 23.8334 5.5359Z" stroke="#21AB4A" stroke-width="1.5" stroke-linecap="round" stroke-linejoin="round"/>
</svg>
