<svg width="18" height="18" viewBox="0 0 18 18" fill="none" xmlns="http://www.w3.org/2000/svg">
<g clip-path="url(#clip0_5_4719)">
<path fill-rule="evenodd" clip-rule="evenodd" d="M18 9C18 13.9706 13.9706 18 9 18C4.02944 18 0 13.9706 0 9C0 4.02944 4.02944 0 9 0C13.9706 0 18 4.02944 18 9ZM9.32244 6.6442C8.44706 7.0083 6.69753 7.7619 4.07384 8.90499C3.6478 9.07442 3.42462 9.24016 3.4043 9.40223C3.36996 9.67612 3.71296 9.78398 4.18003 9.93084C4.24356 9.95082 4.30939 9.97152 4.37688 9.99346C4.8364 10.1428 5.45454 10.3176 5.77589 10.3245C6.06738 10.3308 6.39272 10.2106 6.7519 9.96401C9.20329 8.30925 10.4687 7.47286 10.5482 7.45483C10.6042 7.44211 10.6819 7.42611 10.7345 7.47288C10.7871 7.51966 10.7819 7.60824 10.7764 7.632C10.7424 7.77686 9.39602 9.02857 8.69927 9.67633C8.48205 9.87827 8.32798 10.0215 8.29648 10.0542C8.22593 10.1275 8.15402 10.1968 8.08491 10.2635C7.658 10.675 7.33786 10.9836 8.10263 11.4876C8.47015 11.7298 8.76424 11.9301 9.05763 12.1299C9.37805 12.3481 9.69764 12.5657 10.1111 12.8367C10.2165 12.9058 10.3171 12.9775 10.4151 13.0474C10.788 13.3132 11.123 13.5521 11.5369 13.514C11.7774 13.4918 12.0258 13.2657 12.1519 12.5913C12.4501 10.9974 13.0361 7.54384 13.1716 6.12073C13.1835 5.99605 13.1685 5.83648 13.1565 5.76643C13.1446 5.69638 13.1195 5.59658 13.0284 5.5227C12.9206 5.4352 12.7541 5.41675 12.6797 5.41806C12.3412 5.42403 11.8218 5.60461 9.32244 6.6442Z" fill="#243228"/>
</g>
<defs>
<clipPath id="clip0_5_4719">
<rect width="18" height="18" fill="white"/>
</clipPath>
</defs>
</svg>
