<svg width="18" height="18" viewBox="0 0 18 18" fill="none" xmlns="http://www.w3.org/2000/svg">
<path d="M0 18C0.193462 17.2926 0.377533 16.621 0.560853 15.9489C0.782114 15.1383 1.006 14.328 1.2205 13.5154C1.24147 13.428 1.23138 13.3359 1.19195 13.2551C0.327947 11.6864 -0.0477082 10.0042 0.102554 8.22657C0.317804 5.68188 1.43651 3.59173 3.41208 1.97153C4.51086 1.06666 5.81805 0.450251 7.21521 0.17815C11.3895 -0.652049 15.4045 1.48393 17.1246 5.23973C17.7666 6.64356 18.01 8.11988 17.8906 9.65218C17.5904 13.506 14.7403 16.7863 10.9665 17.6277C8.83917 18.1018 6.80424 17.8234 4.86173 16.8388C4.77507 16.7987 4.67751 16.7887 4.5845 16.8103C3.13184 17.186 1.68068 17.5661 0.229525 17.9459C0.164913 17.9617 0.0999243 17.976 0 18ZM2.15476 15.8693C2.24041 15.8486 2.30502 15.834 2.36926 15.8171C3.15813 15.6108 3.94701 15.4087 4.73588 15.1939C4.89516 15.1507 5.01575 15.1751 5.15474 15.2573C6.87411 16.2761 8.71295 16.5778 10.6645 16.1386C14.8342 15.1995 17.359 10.8043 16.0739 6.73071C14.903 3.01998 11.1979 0.870483 7.38651 1.69693C4.24303 2.38024 1.75243 5.13305 1.59541 8.60598C1.53042 10.0417 1.84559 11.4016 2.5969 12.63C2.83469 13.0188 2.87639 13.3437 2.73702 13.7667C2.51276 14.4497 2.34972 15.1533 2.15476 15.8693Z" fill="#243228"/>
<path d="M4.44543 6.9143C4.45858 6.169 4.74971 5.55593 5.27601 5.04466C5.35247 4.96608 5.44412 4.90388 5.54538 4.86184C5.64665 4.8198 5.7554 4.7988 5.86503 4.80011C5.99013 4.80011 6.11635 4.81889 6.24069 4.80649C6.50365 4.78057 6.65391 4.9098 6.74594 5.13331C6.99312 5.72535 7.24857 6.31437 7.47847 6.91317C7.52017 7.02173 7.49575 7.19529 7.43339 7.29634C7.26416 7.55791 7.07898 7.80882 6.87893 8.04765C6.75947 8.19566 6.7497 8.32714 6.84624 8.48942C7.57389 9.71105 8.58552 10.5995 9.91196 11.1235C10.0915 11.1945 10.238 11.1663 10.3609 11.0108C10.5818 10.7321 10.8117 10.4609 11.0273 10.1772C11.1512 10.0131 11.2962 9.95184 11.4803 10.0367C12.1189 10.3373 12.753 10.6378 13.383 10.953C13.4491 10.986 13.5104 11.098 13.513 11.1757C13.5385 11.8388 13.3458 12.394 12.7549 12.7805C12.0194 13.2614 11.247 13.3034 10.4259 13.0728C8.31956 12.4815 6.75534 11.1645 5.49952 9.42593C5.0863 8.85117 4.70539 8.25914 4.54461 7.55742C4.49427 7.34818 4.47699 7.12955 4.44543 6.9143Z" fill="#243228"/>
</svg>
